<?xml version="1.0" encoding="UTF-8"?>
<svg id="_Слой_1" data-name="Слой 1" xmlns="http://www.w3.org/2000/svg" viewBox="0 0 804.59 241.45">
  <defs>
    <style>
      .cls-1 {
        fill: #fff;
      }

      .cls-2 {
        fill: #ff4800;
      }
    </style>
  </defs>
  <g>
    <polygon class="cls-2" points="338.5 108.08 338.5 26.25 294.9 26.25 294.9 5.74 408.83 5.74 408.83 26.25 365.37 26.25 365.37 108.08 338.5 108.08"/>
    <path class="cls-2" d="M503.49,88.14h-59.89l-9.29,19.94h-27.95L457.68,5.74h32.66l51.46,102.34h-28.94l-9.36-19.94ZM452.1,69.92h42.88l-21.44-46.03-21.44,46.03Z"/>
    <polygon class="cls-2" points="649.38 108.08 590.28 44.12 583.77 37.47 584.27 46.33 584.27 108.08 560.18 108.08 560.18 5.74 587.63 5.74 646.16 69.7 652.59 76.35 652.1 67.49 652.1 5.74 676.18 5.74 676.18 108.08 649.38 108.08"/>
    <polygon class="cls-2" points="703.11 108.08 703.11 5.74 802.81 5.74 802.81 25.75 729.98 25.75 729.98 46.98 792.73 46.98 792.73 65.56 729.98 65.56 729.98 88 804.59 88 804.59 108.08 703.11 108.08"/>
    <path class="cls-2" d="M256.01,71.53c-9.37,13.57-29.4,14.42-32.29,14.46-20.43,0-41.36-12.68-61.15-27.89,19.87-17.11,40.04-32.79,58.36-32.79,23,0,32.74,9.81,36.88,18.26l23.22-9.91C273.28,16.94,255.68,0,220.92,0c-28.27,0-53.52,20.36-77.85,41.49C118.74,20.36,93.48,0,65.22,0,15.14,0,.67,35.15,0,54.19c0,44.82,40.68,56.97,62.27,57.13,29.65,0,56.48-17.07,80.8-36.29.07.06.14.11.21.17.05.04.1.08.15.12h0c24.23,19.09,50.93,36,80.44,36,16.3-.12,43.42-7.14,55.76-29.82-7.75-3.25-16.01-6.74-23.61-9.96ZM62.42,85.99c-3.79-.06-37.1-1.49-37.11-31.23.28-4.92,3.54-29.45,39.91-29.45,18.32,0,38.49,15.68,58.36,32.79-19.79,15.22-40.72,27.89-61.15,27.89Z"/>
  </g>
  <g>
    <rect class="cls-2" x="267.48" y="212.71" width="27.66" height="26.03"/>
    <path class="cls-2" d="M338.5,238.74v-79.49h27.42v18.52c3-6.87,7.19-11.78,12.6-14.72,5.39-2.94,12.14-4.42,20.26-4.42h17.58v19.53h-19.21c-5.68,0-10.49.85-14.41,2.56-3.93,1.7-7.12,4.02-9.57,6.93-2.45,2.92-4.22,6.29-5.3,10.11-1.09,3.82-1.63,7.82-1.63,12.01v28.98h-27.74Z"/>
    <path class="cls-2" d="M546.73,221.85c-2.01,3-4.51,5.71-7.48,8.13-2.97,2.43-6.41,4.5-10.34,6.2-3.92,1.71-8.33,3.01-13.22,3.92-4.87.9-10.21,1.35-15.99,1.35-8.88,0-16.91-.97-24.09-2.9-7.18-1.94-13.32-4.73-18.39-8.37-5.1-3.64-9.01-8.06-11.74-13.25-2.74-5.19-4.11-11.07-4.11-17.63s1.27-12.24,3.8-17.5c2.53-5.27,6.18-9.79,10.97-13.56,4.77-3.77,10.6-6.69,17.51-8.75,6.89-2.07,14.73-3.1,23.51-3.1,7.9,0,15.11,1.06,21.65,3.18,6.53,2.12,12.13,5.11,16.78,8.99,4.65,3.88,8.25,8.52,10.81,13.94,2.56,5.42,3.84,11.42,3.84,17.98v3.8h-81.81c.47,2.73,1.54,5.27,3.25,7.59,1.71,2.33,3.89,4.34,6.54,6.04,2.66,1.7,5.75,3.04,9.27,3.99,3.51.96,7.33,1.43,11.46,1.43,7.03,0,12.9-.94,17.63-2.83,4.72-1.88,8.4-4.27,11.03-7.17l19.14,8.52ZM522.71,190.48c-.21-2.22-.92-4.4-2.13-6.55-1.22-2.14-2.92-4.04-5.11-5.7-2.2-1.65-4.9-3-8.1-4.03-3.2-1.03-6.9-1.55-11.08-1.55s-7.65.46-10.85,1.36c-3.2.91-5.97,2.14-8.29,3.72-2.32,1.57-4.2,3.46-5.62,5.66-1.42,2.19-2.36,4.55-2.82,7.08h54Z"/>
    <path class="cls-2" d="M664.55,238.74v-34.17c0-3.66-.35-7.18-1.04-10.54-.7-3.35-1.92-6.31-3.65-8.87-1.73-2.56-4.09-4.59-7.09-6.12-3-1.52-6.79-2.29-11.39-2.29-3.72,0-7.27.59-10.66,1.75-3.38,1.17-6.35,2.9-8.9,5.23-2.56,2.33-4.6,5.23-6.13,8.72-1.52,3.49-2.28,7.55-2.28,12.2v34.09h-27.74v-79.49h27.42v16.97c1.71-3.2,3.89-6.02,6.55-8.48,2.65-2.45,5.67-4.52,9.06-6.2,3.38-1.68,7.06-2.96,11.04-3.84,3.98-.88,8.13-1.32,12.47-1.32,7.23,0,13.39,1,18.47,2.99,5.09,1.99,9.24,4.88,12.44,8.68,3.2,3.8,5.52,8.48,6.97,14.06,1.45,5.58,2.17,11.96,2.17,19.14v37.5h-27.73Z"/>
    <path class="cls-2" d="M804.59,239.9c-2.78.26-5.3.48-7.55.66-2.24.18-4.37.31-6.35.42-1.99.1-3.91.18-5.77.24-1.86.05-3.82.07-5.89.07-11.83,0-20.94-3.04-27.35-9.14-6.4-6.09-9.61-15.55-9.61-28.36v-25.64h-16.66v-18.9h16.66v-21.46l27.74-5.04v26.49h32.22v18.9h-32.22v25.88c0,5.89,1.35,10.19,4.07,12.9,2.7,2.71,7.08,4.06,13.13,4.06h17.58v18.91Z"/>
  </g>
  <g>
    <path class="cls-1" d="M125,78.34c-.69-.82-.99-1.79-.91-2.9.08-1.11.62-2.24,1.63-3.37-2.49,1.13-4.31,1.03-5.44-.32-.92-1.09-1.08-2.4-.5-3.92.58-1.52,1.83-3.08,3.74-4.69,1.87-1.57,3.62-2.51,5.24-2.8,1.62-.29,2.88.09,3.77,1.16.54.65.75,1.46.61,2.43-.14.97-.55,1.95-1.24,2.95,1.29-.73,2.47-1.07,3.53-1.04,1.06.04,1.94.46,2.61,1.27,1,1.19,1.2,2.6.6,4.24-.6,1.64-1.94,3.33-4.02,5.08-2.07,1.74-3.96,2.78-5.65,3.11-1.7.34-3.03-.06-3.98-1.2ZM134.68,69.71c-.47-.56-1.12-.78-1.94-.64-.82.14-1.77.65-2.83,1.55-1.15.97-1.87,1.84-2.16,2.63-.29.79-.21,1.45.24,1.99s1.13.75,1.98.57,1.8-.71,2.86-1.6,1.73-1.7,2.06-2.49c.33-.79.26-1.46-.2-2.01ZM129.55,64.38c-.45-.54-1.06-.74-1.82-.6-.76.14-1.61.6-2.54,1.38-.93.78-1.53,1.53-1.81,2.25-.27.72-.18,1.35.27,1.89.42.5,1.01.69,1.78.57.77-.12,1.62-.58,2.56-1.37.8-.67,1.39-1.37,1.77-2.11.37-.73.3-1.4-.22-2.01Z"/>
    <path class="cls-1" d="M147.68,64.82l-7.42-8.84-3.05,2.56-1.4-1.67c1.08-1.05,1.75-1.94,2.02-2.65.27-.71.21-1.48-.16-2.3l2.79-2.34,10.49,12.5-3.27,2.74Z"/>
    <path class="cls-1" d="M152.85,54.97c-.69-.82-.99-1.79-.91-2.9.08-1.11.62-2.24,1.63-3.37-2.49,1.13-4.31,1.03-5.44-.32-.92-1.09-1.08-2.4-.5-3.92.58-1.52,1.83-3.08,3.74-4.69,1.87-1.57,3.62-2.51,5.24-2.8,1.62-.29,2.88.09,3.77,1.16.54.65.75,1.46.61,2.43-.14.97-.55,1.95-1.24,2.95,1.29-.73,2.47-1.07,3.53-1.04,1.06.04,1.94.46,2.61,1.27,1,1.19,1.2,2.6.6,4.24-.6,1.64-1.94,3.33-4.02,5.08s-3.96,2.78-5.65,3.11c-1.7.34-3.03-.06-3.98-1.2ZM162.52,46.35c-.47-.56-1.12-.78-1.94-.64-.82.14-1.77.65-2.83,1.55-1.15.97-1.87,1.84-2.16,2.63-.29.79-.21,1.45.24,1.99s1.13.75,1.98.57,1.8-.71,2.86-1.6c1.04-.87,1.73-1.7,2.06-2.49.33-.79.26-1.46-.2-2.01ZM157.39,41.01c-.45-.54-1.06-.74-1.82-.6-.76.14-1.61.6-2.54,1.38s-1.53,1.53-1.81,2.25c-.27.72-.18,1.35.27,1.89.42.5,1.01.69,1.78.57.77-.12,1.62-.58,2.56-1.37.8-.67,1.39-1.37,1.77-2.11.37-.73.3-1.4-.22-2.01Z"/>
  </g>
</svg>